<svg xmlns="http://www.w3.org/2000/svg" width="64.462" height="70.116" viewBox="0 0 64.462 70.116">
  <g id="patient" transform="translate(-0.001)">
    <path id="Tracé_14102" data-name="Tracé 14102" d="M62.544,74.664a7.54,7.54,0,0,0,3.38-6.27,7.676,7.676,0,0,0-15.351,0,7.533,7.533,0,0,0,3.3,6.209,11.484,11.484,0,0,0-5.215,4.675,14.114,14.114,0,0,0-6.685-5.565,9.05,9.05,0,0,0,4.441-7.74,9.312,9.312,0,0,0-18.619,0,9.056,9.056,0,0,0,4.542,7.8,14.135,14.135,0,0,0-6.528,5.5A11.487,11.487,0,0,0,20.591,74.6a7.533,7.533,0,0,0,3.3-6.209,7.676,7.676,0,0,0-15.351,0,7.541,7.541,0,0,0,3.38,6.27A12.309,12.309,0,0,0,5,85.94V90.8a1.131,1.131,0,0,0,1.131,1.131H23.372V93.7A1.131,1.131,0,0,0,24.5,94.831H49.959A1.131,1.131,0,0,0,51.089,93.7V91.931H68.331A1.131,1.131,0,0,0,69.462,90.8V85.94A12.31,12.31,0,0,0,62.544,74.664Zm-4.3-11.578a5.309,5.309,0,1,1-5.414,5.308A5.368,5.368,0,0,1,58.249,63.086ZM30.055,65.973A7.051,7.051,0,1,1,37.1,72.81a6.952,6.952,0,0,1-7.048-6.837ZM16.213,63.086A5.309,5.309,0,1,1,10.8,68.394,5.368,5.368,0,0,1,16.213,63.086Zm7.159,24.6v1.984H7.262V85.94c0-5.5,4.062-9.977,9.055-9.977a9,9,0,0,1,8.21,5.787A15.719,15.719,0,0,0,23.372,87.686Zm25.456,4.883H25.634V87.686c0-6.956,5.2-12.615,11.6-12.615s11.6,5.659,11.6,12.615Zm18.372-2.9H51.089V87.686a15.719,15.719,0,0,0-1.154-5.936,9,9,0,0,1,8.21-5.787c4.992,0,9.055,4.476,9.055,9.977v3.729Z" transform="translate(-4.999 -24.715)" fill="#2e3c66"/>
    <path id="Tracé_14103" data-name="Tracé 14103" d="M57.153,27.313H53a1.131,1.131,0,0,1-1.131-1.131V21.35H47.195a1.131,1.131,0,0,1-1.131-1.131V15.973a1.131,1.131,0,0,1,1.131-1.131h4.671V10.01A1.131,1.131,0,0,1,53,8.879h4.156a1.131,1.131,0,0,1,1.131,1.131v4.832h4.671a1.131,1.131,0,0,1,1.131,1.131v4.247a1.131,1.131,0,0,1-1.131,1.131H58.284v4.832A1.131,1.131,0,0,1,57.153,27.313Zm-3.025-2.262h1.894V20.219a1.131,1.131,0,0,1,1.131-1.131h4.671V17.1H57.153a1.131,1.131,0,0,1-1.131-1.131V11.141H54.128v4.832A1.131,1.131,0,0,1,53,17.1H48.326v1.985H53a1.131,1.131,0,0,1,1.131,1.131Z" transform="translate(-22.843 -3.858)" fill="#2e3c66"/>
    <path id="Tracé_14104" data-name="Tracé 14104" d="M51.188,28.474A14.238,14.238,0,1,1,65.257,14.238,14.17,14.17,0,0,1,51.188,28.474Zm0-26.213A11.977,11.977,0,1,0,63,14.237,11.905,11.905,0,0,0,51.188,2.262Z" transform="translate(-18.957 0)" fill="#2e3c66"/>
  </g>
</svg>
