<svg xmlns="http://www.w3.org/2000/svg" width="54.182" height="52.589" viewBox="0 0 54.182 52.589">
  <g id="demi-lune" transform="translate(0 -7.5)">
    <path id="Tracé_16275" data-name="Tracé 16275" d="M384.093,18.442l3.13-1.807v3.614h3.187V16.634l3.13,1.807,1.594-2.76L392,13.874l3.13-1.807-1.594-2.76-3.13,1.807V7.5h-3.187v3.614l-3.13-1.807-1.594,2.76,3.13,1.807-3.13,1.807Z" transform="translate(-341.862)" fill="#2e3c66"/>
    <path id="Tracé_16276" data-name="Tracé 16276" d="M220.17,153.442l3.13-1.807v3.614h3.187v-3.614l3.13,1.807,1.594-2.76-3.13-1.807,3.13-1.807-1.594-2.76-3.13,1.807V142.5H223.3v3.614l-3.13-1.807-1.594,2.76,3.13,1.807-3.13,1.807Z" transform="translate(-195.354 -120.658)" fill="#2e3c66"/>
    <path id="Tracé_16277" data-name="Tracé 16277" d="M37.078,53.677A23.494,23.494,0,0,1,14.424,24.012l1.109-4.072-3.524,2.323A26.668,26.668,0,0,0,2.927,56.692a7.166,7.166,0,0,0,9.437,10.355A26.672,26.672,0,0,0,52.4,51.565L53.5,47.493l-3.524,2.323A23.376,23.376,0,0,1,37.078,53.677Zm-32.3,7.171a3.984,3.984,0,1,1,3.984,3.984A3.988,3.988,0,0,1,4.781,60.849ZM26.666,68.02a23.332,23.332,0,0,1-11.908-3.241A7.167,7.167,0,0,0,5.407,54.515a23.482,23.482,0,0,1,5.144-27.051A26.676,26.676,0,0,0,47.9,54.576,23.542,23.542,0,0,1,26.666,68.02Z" transform="translate(0 -11.118)" fill="#2e3c66"/>
    <path id="Tracé_16278" data-name="Tracé 16278" d="M480,187.5h3.187v3.187H480Z" transform="translate(-429.004 -160.877)" fill="#2e3c66"/>
    <path id="Tracé_16279" data-name="Tracé 16279" d="M390,157.5h3.187v3.187H390Z" transform="translate(-348.565 -134.064)" fill="#2e3c66"/>
    <path id="Tracé_16280" data-name="Tracé 16280" d="M255,37.5h3.187v3.187H255Z" transform="translate(-227.908 -26.813)" fill="#2e3c66"/>
    <path id="Tracé_16281" data-name="Tracé 16281" d="M180,97.5h3.187v3.187H180Z" transform="translate(-160.876 -80.438)" fill="#2e3c66"/>
    <path id="Tracé_16282" data-name="Tracé 16282" d="M375,262.5h3.187v3.187H375Z" transform="translate(-335.159 -227.909)" fill="#2e3c66"/>
  </g>
</svg>
