<svg xmlns="http://www.w3.org/2000/svg" xmlns:xlink="http://www.w3.org/1999/xlink" width="70" height="70" viewBox="0 0 70 70">
  <defs>
    <clipPath id="clip-path">
      <rect id="Rectangle_3804" data-name="Rectangle 3804" width="70" height="70" fill="#2e3c66"/>
    </clipPath>
  </defs>
  <g id="g15" transform="translate(0 0)">
    <g id="g17" transform="translate(0 0)">
      <g id="Groupe_13182" data-name="Groupe 13182" transform="translate(0 0)">
        <g id="Groupe_13181" data-name="Groupe 13181" clip-path="url(#clip-path)">
          <g id="g19" transform="translate(0 0)">
            <g id="g25" transform="translate(15.654 16.064)">
              <g id="path27">
                <path id="Tracé_16270" data-name="Tracé 16270" d="M172.013,195.358a19.346,19.346,0,1,1,19.346-19.346A19.368,19.368,0,0,1,172.013,195.358Zm0-34.59a15.244,15.244,0,1,0,15.244,15.244A15.261,15.261,0,0,0,172.013,160.769Z" transform="translate(-152.667 -156.667)" fill="#2e3c66"/>
              </g>
            </g>
            <g id="g29" transform="translate(32.949 7.93)">
              <g id="path31">
                <rect id="Rectangle_3788" data-name="Rectangle 3788" width="4.102" height="4.375" fill="#2e3c66"/>
              </g>
            </g>
            <g id="g33" transform="translate(17.501 6.742)">
              <g id="path35" transform="translate(0 0)">
                <rect id="Rectangle_3789" data-name="Rectangle 3789" width="4.102" height="8.75" transform="translate(0 2.051) rotate(-29.999)" fill="#2e3c66"/>
              </g>
            </g>
            <g id="g37" transform="translate(32.949)">
              <g id="path39">
                <rect id="Rectangle_3790" data-name="Rectangle 3790" width="4.102" height="3.794" fill="#2e3c66"/>
              </g>
            </g>
            <g id="g41" transform="translate(32.949 57.695)">
              <g id="path43">
                <rect id="Rectangle_3791" data-name="Rectangle 3791" width="4.102" height="4.375" fill="#2e3c66"/>
              </g>
            </g>
            <g id="g45" transform="translate(44.572 53.629)">
              <g id="path47" transform="translate(0 0)">
                <rect id="Rectangle_3792" data-name="Rectangle 3792" width="4.102" height="8.75" transform="translate(0 2.051) rotate(-30)" fill="#2e3c66"/>
              </g>
            </g>
            <g id="g49" transform="translate(6.742 17.501)">
              <g id="path51" transform="translate(0 0)">
                <rect id="Rectangle_3793" data-name="Rectangle 3793" width="4.102" height="8.75" transform="translate(0 3.552) rotate(-60)" fill="#2e3c66"/>
              </g>
            </g>
            <g id="g53" transform="translate(53.629 44.572)">
              <g id="path55" transform="translate(0 0)">
                <rect id="Rectangle_3794" data-name="Rectangle 3794" width="4.102" height="8.75" transform="translate(0 3.552) rotate(-60.001)" fill="#2e3c66"/>
              </g>
            </g>
            <g id="g57" transform="translate(6.742 44.572)">
              <g id="path59" transform="translate(0 0)">
                <rect id="Rectangle_3795" data-name="Rectangle 3795" width="8.75" height="4.102" transform="matrix(0.866, -0.5, 0.5, 0.866, 0, 4.375)" fill="#2e3c66"/>
              </g>
            </g>
            <g id="g61" transform="translate(53.629 17.501)">
              <g id="path63" transform="translate(0 0)">
                <rect id="Rectangle_3796" data-name="Rectangle 3796" width="8.75" height="4.102" transform="matrix(0.866, -0.5, 0.5, 0.866, 0, 4.375)" fill="#2e3c66"/>
              </g>
            </g>
            <g id="g65" transform="translate(17.501 53.629)">
              <g id="path67" transform="translate(0 0)">
                <rect id="Rectangle_3797" data-name="Rectangle 3797" width="8.75" height="4.102" transform="matrix(0.5, -0.866, 0.866, 0.5, 0, 7.578)" fill="#2e3c66"/>
              </g>
            </g>
            <g id="g69" transform="translate(44.572 6.742)">
              <g id="path71" transform="translate(0 0)">
                <rect id="Rectangle_3798" data-name="Rectangle 3798" width="8.75" height="4.102" transform="matrix(0.5, -0.866, 0.866, 0.5, 0, 7.578)" fill="#2e3c66"/>
              </g>
            </g>
            <g id="g73" transform="translate(32.949 66.206)">
              <g id="path75">
                <rect id="Rectangle_3799" data-name="Rectangle 3799" width="4.102" height="3.794" fill="#2e3c66"/>
              </g>
            </g>
            <g id="g77" transform="translate(7.93 32.949)">
              <g id="path79">
                <rect id="Rectangle_3800" data-name="Rectangle 3800" width="4.375" height="4.102" fill="#2e3c66"/>
              </g>
            </g>
            <g id="g81" transform="translate(0 32.949)">
              <g id="path83">
                <rect id="Rectangle_3801" data-name="Rectangle 3801" width="3.794" height="4.102" fill="#2e3c66"/>
              </g>
            </g>
            <g id="g85" transform="translate(57.695 32.949)">
              <g id="path87">
                <rect id="Rectangle_3802" data-name="Rectangle 3802" width="4.375" height="4.102" fill="#2e3c66"/>
              </g>
            </g>
            <g id="g89" transform="translate(66.206 32.949)">
              <g id="path91">
                <rect id="Rectangle_3803" data-name="Rectangle 3803" width="3.794" height="4.102" fill="#2e3c66"/>
              </g>
            </g>
          </g>
        </g>
      </g>
    </g>
  </g>
</svg>
