<svg id="calendar" xmlns="http://www.w3.org/2000/svg" width="21.257" height="20.881" viewBox="0 0 21.257 20.881">
  <g id="_x31_5_38_" transform="translate(0 0)">
    <g id="Groupe_11333" data-name="Groupe 11333">
      <path id="Tracé_7706" data-name="Tracé 7706" d="M100.252,9.609h.3a.837.837,0,0,0,.837-.837V5.6a.837.837,0,0,0-.837-.837h-.3a.837.837,0,0,0-.837.837V8.772A.837.837,0,0,0,100.252,9.609Z" transform="translate(-95.057 -4.741)" fill="#2e3c66"/>
      <path id="Tracé_7707" data-name="Tracé 7707" d="M345.118,9.136h.3a.837.837,0,0,0,.837-.837V5.126a.837.837,0,0,0-.837-.837h-.3a.837.837,0,0,0-.837.837V8.3A.837.837,0,0,0,345.118,9.136Z" transform="translate(-329.19 -4.289)" fill="#2e3c66"/>
      <path id="Tracé_7708" data-name="Tracé 7708" d="M19.9,43.558H17.749v2.508a1.347,1.347,0,0,1-1.517,1.3h-.3a1.519,1.519,0,0,1-1.517-1.517V43.558h-7.4v2.309A1.519,1.519,0,0,1,5.5,47.384h-.3a1.519,1.519,0,0,1-1.517-1.517V43.558H1.36A1.362,1.362,0,0,0,0,44.918V61.357a1.362,1.362,0,0,0,1.36,1.36H19.9a1.362,1.362,0,0,0,1.36-1.36V44.918A1.362,1.362,0,0,0,19.9,43.558Zm0,17.8H1.36V48.943H19.9V61.357Z" transform="translate(0 -41.837)" fill="#2e3c66"/>
      <path id="Tracé_7709" data-name="Tracé 7709" d="M254.673,207.621h2.443a.175.175,0,0,0,.175-.175V205.33a.175.175,0,0,0-.175-.175h-2.443a.175.175,0,0,0-.175.175v2.115A.175.175,0,0,0,254.673,207.621Z" transform="translate(-243.342 -196.35)" fill="#2e3c66"/>
      <path id="Tracé_7710" data-name="Tracé 7710" d="M345.618,207.621h2.443a.175.175,0,0,0,.175-.175V205.33a.175.175,0,0,0-.175-.175h-2.443a.175.175,0,0,0-.175.175v2.115A.175.175,0,0,0,345.618,207.621Z" transform="translate(-330.301 -196.35)" fill="#2e3c66"/>
      <path id="Tracé_7711" data-name="Tracé 7711" d="M72.786,286.62h2.443a.175.175,0,0,0,.175-.175v-2.115a.175.175,0,0,0-.175-.175H72.786a.175.175,0,0,0-.175.175v2.115A.175.175,0,0,0,72.786,286.62Z" transform="translate(-69.428 -271.887)" fill="#2e3c66"/>
      <path id="Tracé_7712" data-name="Tracé 7712" d="M163.73,286.62h2.443a.175.175,0,0,0,.175-.175v-2.115a.175.175,0,0,0-.175-.175H163.73a.175.175,0,0,0-.175.175v2.115A.175.175,0,0,0,163.73,286.62Z" transform="translate(-156.386 -271.887)" fill="#2e3c66"/>
      <path id="Tracé_7713" data-name="Tracé 7713" d="M254.674,286.62h2.443a.175.175,0,0,0,.175-.175v-2.115a.175.175,0,0,0-.175-.175h-2.443a.175.175,0,0,0-.175.175v2.115A.175.175,0,0,0,254.674,286.62Z" transform="translate(-243.343 -271.887)" fill="#2e3c66"/>
      <path id="Tracé_7714" data-name="Tracé 7714" d="M345.618,286.62h2.443a.175.175,0,0,0,.175-.175v-2.115a.175.175,0,0,0-.175-.175h-2.443a.175.175,0,0,0-.175.175v2.115A.175.175,0,0,0,345.618,286.62Z" transform="translate(-330.301 -271.887)" fill="#2e3c66"/>
      <path id="Tracé_7715" data-name="Tracé 7715" d="M75.23,363.154H72.787a.175.175,0,0,0-.175.175v2.115a.175.175,0,0,0,.175.175H75.23a.175.175,0,0,0,.175-.175v-2.115A.175.175,0,0,0,75.23,363.154Z" transform="translate(-69.429 -347.424)" fill="#2e3c66"/>
      <path id="Tracé_7716" data-name="Tracé 7716" d="M166.174,363.154h-2.443a.175.175,0,0,0-.175.175v2.115a.175.175,0,0,0,.175.175h2.443a.175.175,0,0,0,.175-.175v-2.115A.175.175,0,0,0,166.174,363.154Z" transform="translate(-156.387 -347.424)" fill="#2e3c66"/>
      <path id="Tracé_7717" data-name="Tracé 7717" d="M257.118,363.154h-2.443a.175.175,0,0,0-.175.175v2.115a.175.175,0,0,0,.175.175h2.443a.175.175,0,0,0,.175-.175v-2.115A.175.175,0,0,0,257.118,363.154Z" transform="translate(-243.344 -347.424)" fill="#2e3c66"/>
      <path id="Tracé_7718" data-name="Tracé 7718" d="M348.061,363.154h-2.443a.175.175,0,0,0-.175.175v2.115a.175.175,0,0,0,.175.175h2.443a.175.175,0,0,0,.175-.175v-2.115A.175.175,0,0,0,348.061,363.154Z" transform="translate(-330.301 -347.424)" fill="#2e3c66"/>
    </g>
  </g>
</svg>
