<svg id="consultant" xmlns="http://www.w3.org/2000/svg" width="27" height="27.008" viewBox="0 0 27 27.008">
  <path id="Tracé_14105" data-name="Tracé 14105" d="M4.615,24.56a.723.723,0,0,0,.887.887l3.763-1.018a10.981,10.981,0,0,0,5.77,1.634h.008A8.343,8.343,0,0,0,26.951,29.8l2.7.732a.723.723,0,0,0,.887-.887l-.732-2.7a8.342,8.342,0,0,0-3.738-11.907v-.008A11.036,11.036,0,1,0,5.633,20.8Zm24.939-1.913a6.872,6.872,0,0,1-1.13,3.781.725.725,0,0,0-.094.586l.485,1.793-1.793-.485a.718.718,0,0,0-.586.093A6.9,6.9,0,0,1,16.6,25.95a11.057,11.057,0,0,0,9.358-9.357,6.936,6.936,0,0,1,3.6,6.055ZM5.446,15.027a9.6,9.6,0,1,1,4.335,8.016A.721.721,0,0,0,9.2,22.95l-2.855.773.773-2.855a.725.725,0,0,0-.094-.586,9.546,9.546,0,0,1-1.573-5.255Z" transform="translate(-4 -3.983)" fill="#2e3c66"/>
  <path id="Tracé_14106" data-name="Tracé 14106" d="M15.887,23.085H18.55v2.662a.723.723,0,0,0,.723.723h3.088a.723.723,0,0,0,.723-.723V23.085h2.663a.723.723,0,0,0,.723-.723V19.273a.723.723,0,0,0-.723-.723H23.084V15.888a.723.723,0,0,0-.723-.723H19.273a.723.723,0,0,0-.723.723V18.55H15.887a.723.723,0,0,0-.723.723v3.088a.723.723,0,0,0,.723.723ZM16.611,20h2.663A.723.723,0,0,0,20,19.273V16.611h1.641v2.662a.723.723,0,0,0,.723.723h2.663v1.642H22.361a.723.723,0,0,0-.723.723v2.662H20V22.361a.723.723,0,0,0-.723-.723H16.611Z" transform="translate(-9.781 -9.774)" fill="#2e3c66"/>
</svg>
