<svg xmlns="http://www.w3.org/2000/svg" width="418" height="22" viewBox="0 0 418 22">
  <g id="Groupe_11409" data-name="Groupe 11409" transform="translate(-102 -4650)">
    <text id="Duetodata.com_-_Tous_droits_réservés" data-name="Duetodata.com - Tous droits réservés" transform="translate(212 4667)" fill="#2e3c66" font-size="18" font-family="MADETOMMY, MADE TOMMY"><tspan x="0" y="0">Duetodata.com - Tous droits réservés</tspan></text>
    <text id="Copyright" transform="translate(102 4667)" fill="#2e3c66" font-size="18" font-family="MADETOMMY, MADE TOMMY"><tspan x="0" y="0">Copyright</tspan></text>
    <g id="_01" data-name="01" transform="translate(186.75 4648.75)">
      <path id="Tracé_7727" data-name="Tracé 7727" d="M12,1.25A10.75,10.75,0,1,0,22.75,12,10.75,10.75,0,0,0,12,1.25Zm0,20A9.25,9.25,0,1,1,21.25,12,9.25,9.25,0,0,1,12,21.25ZM8.99,12a3.246,3.246,0,0,0,5.4,2.437.749.749,0,0,1,.988,1.126,4.75,4.75,0,1,1,0-7.125.75.75,0,1,1-.992,1.125A3.245,3.245,0,0,0,8.99,12Z" fill="#2e3c66"/>
    </g>
  </g>
</svg>
