<svg xmlns="http://www.w3.org/2000/svg" width="16.494" height="21.112" viewBox="0 0 16.494 21.112">
  <path id="garbage" d="M70.78,6.268H57.7c-.013.161-.062-.7.885,13.507a1.436,1.436,0,0,0,1.43,1.337h8.45a1.436,1.436,0,0,0,1.43-1.337C70.843,5.558,70.794,6.425,70.78,6.268Zm-9.121,12.2a.66.66,0,0,1-.715-.6l-.66-7.587a.66.66,0,0,1,1.315-.115l.66,7.587A.66.66,0,0,1,61.659,18.471Zm3.241-.657a.66.66,0,1,1-1.319,0V10.226a.66.66,0,1,1,1.319,0Zm3.3-7.53-.66,7.587a.66.66,0,0,1-1.315-.115l.66-7.587a.66.66,0,0,1,1.315.115Zm2.858-7.974h-3.19c.007-.087,0-.022,0-.876A1.435,1.435,0,0,0,66.437,0H62.045a1.435,1.435,0,0,0-1.433,1.433c0,.838,0,.789,0,.876h-3.19a1.435,1.435,0,0,0-1.433,1.433c0,1.179,0,1.123,0,1.206H72.483c.006-.085,0-.034,0-1.206A1.435,1.435,0,0,0,71.055,2.309ZM66.55,2.2a.113.113,0,0,1-.113.113H62.045a.113.113,0,0,1-.113-.113V1.433a.113.113,0,0,1,.113-.113h4.391a.113.113,0,0,1,.113.113Z" transform="translate(-55.994)" fill="#1b8793"/>
</svg>
