<svg id="instagram" xmlns="http://www.w3.org/2000/svg" width="24.565" height="24.565" viewBox="0 0 24.565 24.565">
  <path id="Tracé_9" data-name="Tracé 9" d="M17.247,0H7.318A7.326,7.326,0,0,0,0,7.318v9.929a7.326,7.326,0,0,0,7.318,7.318h9.929a7.326,7.326,0,0,0,7.318-7.318V7.318A7.326,7.326,0,0,0,17.247,0Zm4.847,17.247a4.847,4.847,0,0,1-4.847,4.847H7.318a4.847,4.847,0,0,1-4.847-4.847V7.318A4.847,4.847,0,0,1,7.318,2.471h9.929a4.847,4.847,0,0,1,4.847,4.847v9.929Z" fill="#2e3c66"/>
  <path id="Tracé_10" data-name="Tracé 10" d="M139.353,133a6.353,6.353,0,1,0,6.353,6.353A6.361,6.361,0,0,0,139.353,133Zm0,10.236a3.882,3.882,0,1,1,3.882-3.882A3.882,3.882,0,0,1,139.353,143.236Z" transform="translate(-127.071 -127.071)" fill="#2e3c66"/>
  <ellipse id="Ellipse_4" data-name="Ellipse 4" cx="1.522" cy="1.522" rx="1.522" ry="1.522" transform="translate(17.126 4.454)" fill="#2e3c66"/>
</svg>
