<svg id="_x31_0.Linkedin" xmlns="http://www.w3.org/2000/svg" width="24.841" height="24.841" viewBox="0 0 24.841 24.841">
  <path id="Tracé_11" data-name="Tracé 11" d="M54.353,52.285v-9.1c0-4.471-.963-7.887-6.179-7.887A5.392,5.392,0,0,0,43.3,37.97h-.062V35.7H38.3V52.285h5.154V44.056c0-2.174.4-4.254,3.074-4.254,2.639,0,2.67,2.453,2.67,4.378v8.073h5.154Z" transform="translate(-29.513 -27.444)" fill="#2e3c66"/>
  <path id="Tracé_12" data-name="Tracé 12" d="M11.3,36.6h5.154V53.181H11.3Z" transform="translate(-10.896 -28.34)" fill="#2e3c66"/>
  <path id="Tracé_13" data-name="Tracé 13" d="M12.981,10a3,3,0,1,0,2.981,2.981A2.982,2.982,0,0,0,12.981,10Z" transform="translate(-10 -10)" fill="#2e3c66"/>
</svg>
