<svg xmlns="http://www.w3.org/2000/svg" width="15.455" height="18.455" viewBox="0 0 15.455 18.455">
  <g id="_01_align_center" transform="translate(0 0)">
    <path id="Tracé_14057" data-name="Tracé 14057" d="M48.453,18.653l-.536-.459c-.739-.619-7.192-6.191-7.192-10.268a7.728,7.728,0,1,1,15.455,0c0,4.076-6.453,9.649-7.188,10.271Zm0-16.784A6.063,6.063,0,0,0,42.4,7.926c0,2.561,3.97,6.652,6.057,8.524,2.087-1.873,6.057-5.966,6.057-8.524A6.063,6.063,0,0,0,48.453,1.869Z" transform="translate(-40.725 -0.198)" fill="#2e3c66"/>
    <path id="Tracé_14058" data-name="Tracé 14058" d="M173.189,135.725a3.063,3.063,0,1,1,3.063-3.063A3.063,3.063,0,0,1,173.189,135.725Zm0-4.595a1.532,1.532,0,1,0,1.532,1.532A1.532,1.532,0,0,0,173.189,131.131Z" transform="translate(-165.462 -124.934)" fill="#2e3c66"/>
  </g>
</svg>
