<svg xmlns="http://www.w3.org/2000/svg" width="139.921" height="48.92" viewBox="0 0 139.921 48.92">
  <g id="Groupe_32" data-name="Groupe 32" transform="translate(-1577.525 -502)">
    <text id="عاونّي" transform="translate(1629.446 540)" fill="#2e3c66" font-size="35" font-family="SegoeUI-Bold, Segoe UI" font-weight="700"><tspan x="0" y="0">عاونّي</tspan></text>
    <g id="Groupe_1" data-name="Groupe 1" transform="translate(1577.525 503)">
      <path id="Tracé_1" data-name="Tracé 1" d="M355.226,250.031h-4.632s-.022,2.667-.053,3.177h4.686a3.18,3.18,0,0,1,3.177,3.177v7.942a3.18,3.18,0,0,1-3.177,3.178h-8.869a13.476,13.476,0,0,1-4.236-.527,3.648,3.648,0,0,1-2.541-2.42c-.715.032-1.382.035-1.961.035-.434,0-.87,0-1.289.009.518,2.463,1.932,4.722,5.791,5.642a16.352,16.352,0,0,0,2.647.379v7.34a3.18,3.18,0,0,1-3.176,3.177H333.65a3.181,3.181,0,0,1-3.178-3.177v-8.869c0-7.148,2.691-7.148,7.148-7.148,4.359,0,10.326,0,10.326-10.327V242.75a6.361,6.361,0,0,0-6.353-6.354H333.65a6.361,6.361,0,0,0-6.354,6.353v7.281h-7.281a6.36,6.36,0,0,0-6.354,6.354v7.942a6.361,6.361,0,0,0,6.354,6.354h4.633v-1.588c0-.556.021-1.079.053-1.589h-4.686a3.18,3.18,0,0,1-3.177-3.178v-7.942a3.18,3.18,0,0,1,3.177-3.177h8.869a13.459,13.459,0,0,1,4.235.526,3.652,3.652,0,0,1,2.543,2.42c.715-.032,1.381-.035,1.958-.035.435,0,.872,0,1.292-.009-.518-2.462-1.933-4.722-5.793-5.641a16.271,16.271,0,0,0-2.647-.379V242.75a3.181,3.181,0,0,1,3.178-3.177h7.944a3.18,3.18,0,0,1,3.176,3.177v8.868c0,7.148-2.69,7.148-7.149,7.149-4.356,0-10.325,0-10.325,10.326v8.869a6.361,6.361,0,0,0,6.354,6.354h7.944a6.361,6.361,0,0,0,6.353-6.354v-7.281h7.28a6.363,6.363,0,0,0,6.356-6.354v-7.942A6.362,6.362,0,0,0,355.226,250.031Z" transform="translate(-313.661 -236.396)" fill="#1b8793"/>
    </g>
  </g>
</svg>
