<svg id="patient" xmlns="http://www.w3.org/2000/svg" width="28.468" height="30.965" viewBox="0 0 28.468 30.965">
  <path id="Tracé_14102" data-name="Tracé 14102" d="M30.413,64.731a3.33,3.33,0,0,0,1.493-2.769,3.39,3.39,0,0,0-6.779,0A3.327,3.327,0,0,0,26.582,64.7a5.072,5.072,0,0,0-2.3,2.065,6.233,6.233,0,0,0-2.952-2.457,4,4,0,0,0,1.961-3.418,4.112,4.112,0,0,0-8.223,0,4,4,0,0,0,2.006,3.445,6.242,6.242,0,0,0-2.883,2.431,5.073,5.073,0,0,0-2.3-2.065,3.327,3.327,0,0,0,1.456-2.742,3.39,3.39,0,0,0-6.779,0,3.33,3.33,0,0,0,1.493,2.769A5.436,5.436,0,0,0,5,69.711v2.146a.5.5,0,0,0,.5.5h7.614v.781a.5.5,0,0,0,.5.5H24.855a.5.5,0,0,0,.5-.5v-.781h7.614a.5.5,0,0,0,.5-.5V69.711A5.436,5.436,0,0,0,30.413,64.731Zm-1.9-5.113a2.345,2.345,0,1,1-2.391,2.344A2.37,2.37,0,0,1,28.516,59.618ZM16.065,60.893a3.114,3.114,0,1,1,3.112,3.019,3.07,3.07,0,0,1-3.112-3.019ZM9.952,59.618a2.345,2.345,0,1,1-2.391,2.344A2.37,2.37,0,0,1,9.952,59.618Zm3.162,10.864v.876H6V69.711A4.222,4.222,0,0,1,10,65.3a3.976,3.976,0,0,1,3.626,2.556A6.942,6.942,0,0,0,13.114,70.482Zm11.242,2.157H14.112V70.482a5.366,5.366,0,0,1,5.121-5.571,5.366,5.366,0,0,1,5.121,5.571Zm8.114-1.281H25.354v-.876a6.942,6.942,0,0,0-.51-2.621A3.975,3.975,0,0,1,28.47,65.3a4.222,4.222,0,0,1,4,4.406v1.647Z" transform="translate(-5 -42.672)" fill="#2e3c66"/>
  <path id="Tracé_14103" data-name="Tracé 14103" d="M50.961,17.02H49.126a.5.5,0,0,1-.5-.5V14.386H46.563a.5.5,0,0,1-.5-.5V12.012a.5.5,0,0,1,.5-.5h2.063V9.378a.5.5,0,0,1,.5-.5h1.835a.5.5,0,0,1,.5.5v2.134h2.063a.5.5,0,0,1,.5.5v1.875a.5.5,0,0,1-.5.5H51.461V16.52A.5.5,0,0,1,50.961,17.02Zm-1.336-1h.837V13.887a.5.5,0,0,1,.5-.5h2.063v-.877H50.961a.5.5,0,0,1-.5-.5V9.878h-.837v2.134a.5.5,0,0,1-.5.5H47.063v.877h2.063a.5.5,0,0,1,.5.5Z" transform="translate(-35.81 -6.662)" fill="#2e3c66"/>
  <path id="Tracé_14104" data-name="Tracé 14104" d="M43.333,12.575a6.288,6.288,0,1,1,6.213-6.287A6.258,6.258,0,0,1,43.333,12.575ZM43.333,1a5.289,5.289,0,1,0,5.214,5.288A5.258,5.258,0,0,0,43.333,1Z" transform="translate(-29.099 0)" fill="#2e3c66"/>
</svg>
