<svg xmlns="http://www.w3.org/2000/svg" width="60" height="10.606" viewBox="0 0 60 10.606">
  <g id="rating" transform="translate(0 -210.743)">
    <g id="Groupe_11372" data-name="Groupe 11372" transform="translate(0 210.743)">
      <g id="Groupe_11371" data-name="Groupe 11371" transform="translate(0)">
        <path id="Tracé_7722" data-name="Tracé 7722" d="M11.078,214.726a.764.764,0,0,0-.617-.52l-2.917-.424-1.3-2.641a.794.794,0,0,0-1.37,0l-1.3,2.641-2.91.424a.764.764,0,0,0-.422,1.3l2.11,2.051-.5,2.9a.764.764,0,0,0,1.109.805l2.6-1.371,2.608,1.371a.761.761,0,0,0,.355.088.775.775,0,0,0,.451-.145.766.766,0,0,0,.3-.748l-.5-2.9,2.11-2.051A.763.763,0,0,0,11.078,214.726Z" transform="translate(0 -210.749)" fill="#ffc330"/>
      </g>
    </g>
    <g id="Groupe_11374" data-name="Groupe 11374" transform="translate(12.222 210.743)">
      <g id="Groupe_11373" data-name="Groupe 11373">
        <path id="Tracé_7723" data-name="Tracé 7723" d="M115.366,214.726a.764.764,0,0,0-.617-.52l-2.917-.424-1.3-2.641a.794.794,0,0,0-1.37,0l-1.3,2.641-2.91.424a.764.764,0,0,0-.422,1.3l2.11,2.051-.5,2.9a.764.764,0,0,0,1.109.805l2.6-1.371,2.608,1.371a.761.761,0,0,0,.355.088.775.775,0,0,0,.451-.145.766.766,0,0,0,.3-.748l-.5-2.9,2.11-2.051A.762.762,0,0,0,115.366,214.726Z" transform="translate(-104.288 -210.749)" fill="#ffc330"/>
      </g>
    </g>
    <g id="Groupe_11376" data-name="Groupe 11376" transform="translate(24.443 210.743)">
      <g id="Groupe_11375" data-name="Groupe 11375">
        <path id="Tracé_7724" data-name="Tracé 7724" d="M219.654,214.726a.764.764,0,0,0-.617-.52l-2.917-.424-1.3-2.641a.794.794,0,0,0-1.37,0l-1.3,2.641-2.91.424a.764.764,0,0,0-.422,1.3l2.11,2.051-.5,2.9a.764.764,0,0,0,1.109.805l2.6-1.371,2.608,1.371a.761.761,0,0,0,.355.088.775.775,0,0,0,.451-.145.766.766,0,0,0,.3-.748l-.5-2.9,2.11-2.051A.762.762,0,0,0,219.654,214.726Z" transform="translate(-208.577 -210.749)" fill="#ffc330"/>
      </g>
    </g>
    <g id="Groupe_11407" data-name="Groupe 11407" transform="translate(36.664 210.743)">
      <g id="Groupe_11375-2" data-name="Groupe 11375">
        <path id="Tracé_7724-2" data-name="Tracé 7724" d="M219.654,214.726a.764.764,0,0,0-.617-.52l-2.917-.424-1.3-2.641a.794.794,0,0,0-1.37,0l-1.3,2.641-2.91.424a.764.764,0,0,0-.422,1.3l2.11,2.051-.5,2.9a.764.764,0,0,0,1.109.805l2.6-1.371,2.608,1.371a.761.761,0,0,0,.355.088.775.775,0,0,0,.451-.145.766.766,0,0,0,.3-.748l-.5-2.9,2.11-2.051A.762.762,0,0,0,219.654,214.726Z" transform="translate(-208.577 -210.749)" fill="#ffc330"/>
      </g>
    </g>
    <g id="Groupe_11380" data-name="Groupe 11380" transform="translate(48.886 210.743)">
      <g id="Groupe_11379" data-name="Groupe 11379" transform="translate(0 0)">
        <path id="Tracé_7726" data-name="Tracé 7726" d="M428.233,214.727a.764.764,0,0,0-.617-.52l-2.917-.424-1.3-2.641a.794.794,0,0,0-1.37,0l-1.3,2.641-2.91.424a.764.764,0,0,0-.422,1.3l2.11,2.051-.5,2.9a.764.764,0,0,0,1.109.805l2.6-1.371,2.608,1.371a.761.761,0,0,0,.355.088.775.775,0,0,0,.451-.145.766.766,0,0,0,.3-.748l-.5-2.9,2.11-2.051A.763.763,0,0,0,428.233,214.727Zm-3.659,2.019a.764.764,0,0,0-.221.677l.3,1.774-1.594-.838a.762.762,0,0,0-.71,0l-1.586.836.3-1.771a.763.763,0,0,0-.221-.677l-1.286-1.25,1.773-.258a.764.764,0,0,0,.574-.418l.8-1.614.8,1.614a.762.762,0,0,0,.575.418l1.78.259Z" transform="translate(-417.155 -210.75)" fill="#ffc330"/>
      </g>
    </g>
  </g>
</svg>
