<svg xmlns="http://www.w3.org/2000/svg" width="85.837" height="89.918" viewBox="0 0 85.837 89.918">
  <g id="salary" transform="translate(-7.99)">
    <g id="Groupe_12431" data-name="Groupe 12431" transform="translate(7.99 0)">
      <g id="Groupe_12413" data-name="Groupe 12413" transform="translate(17.683)">
        <g id="Groupe_12408" data-name="Groupe 12408" transform="translate(3.498 8.117)">
          <g id="Groupe_12406" data-name="Groupe 12406">
            <path id="Tracé_14145" data-name="Tracé 14145" d="M147.64,55.091a1.335,1.335,0,0,1-1.078-.545,7.238,7.238,0,0,0-6.784-3.183A13.431,13.431,0,0,1,131,49.369a1.337,1.337,0,0,1,1.44-2.253A10.781,10.781,0,0,0,139.5,48.7a9.945,9.945,0,0,1,9.221,4.258,1.337,1.337,0,0,1-1.076,2.13Z" transform="translate(-130.385 -46.905)" fill="#ffd064"/>
          </g>
          <g id="Groupe_12407" data-name="Groupe 12407" transform="translate(1.921 7.237)">
            <path id="Tracé_14146" data-name="Tracé 14146" d="M142.823,96.774a1.337,1.337,0,0,1-1.138-2.037c1.714-2.792,4.854-4.711,9.082-5.549a24.243,24.243,0,0,1,5.778-.436,1.337,1.337,0,0,1-.181,2.668c-.093-.006-9.171-.544-12.4,4.716A1.336,1.336,0,0,1,142.823,96.774Z" transform="translate(-141.487 -88.726)" fill="#ffd064"/>
          </g>
        </g>
        <g id="Groupe_12412" data-name="Groupe 12412">
          <g id="Groupe_12411" data-name="Groupe 12411">
            <path id="Tracé_14147" data-name="Tracé 14147" d="M137.08,74.633c21.957,0,34.1-32.207-.576-57.081a3.253,3.253,0,0,1-1.363-2.677,4.351,4.351,0,0,1,.79-2.447,63.275,63.275,0,0,0,5.361-9.477,1.1,1.1,0,0,0-1.042-1.588c-2.083,0-2.083-1.363-4.165-1.363S134,1.363,131.919,1.363c-1.775,0-2.5-1.527-3.366-.416-2.517,3.239,6.1,14.629,6.1,14.629C96.59,40.6,108.864,74.633,131.339,74.633h5.741Z" transform="translate(-110.172 0)" fill="#eabc6b"/>
            <g id="Groupe_12409" data-name="Groupe 12409" transform="translate(22.99)">
              <path id="Tracé_14148" data-name="Tracé 14148" d="M255.571,15.575S264.319,4.222,261.8.965c-.857-1.11-1.588.4-3.361.4-2.083,0-2.083-1.363-4.166-1.363s-2.083,1.363-4.166,1.363c-.1,0-.2-.006-.289-.012-.837,3.587-4.608,9.176-6.766,12.168.85,1.247,1.462,2.056,1.462,2.056q-.762.5-1.495,1.006c36.37,25,24.2,58.051,1.957,58.051h14.044c22.543,0,34.741-33.95-3.452-59.058Z" transform="translate(-243.022 0)" fill="#e8ae4d"/>
            </g>
            <g id="Groupe_12410" data-name="Groupe 12410" transform="translate(19.65 13.225)">
              <path id="Tracé_14149" data-name="Tracé 14149" d="M241.238,82.813a30.43,30.43,0,0,1-15.188,0,3.243,3.243,0,0,1-2.136-4.245l.021-.061a2.992,2.992,0,0,1,3.532-1.995,24.726,24.726,0,0,0,12.353,0,2.992,2.992,0,0,1,3.532,1.995l.021.061A3.242,3.242,0,0,1,241.238,82.813Z" transform="translate(-223.722 -76.425)" fill="#ffe07d"/>
            </g>
          </g>
        </g>
      </g>
      <g id="Groupe_12430" data-name="Groupe 12430" transform="translate(0 51.963)">
        <g id="Groupe_12429" data-name="Groupe 12429" transform="translate(0 0)">
          <g id="Groupe_12427" data-name="Groupe 12427">
            <g id="Groupe_12426" data-name="Groupe 12426">
              <g id="Groupe_12425" data-name="Groupe 12425">
                <g id="Groupe_12424" data-name="Groupe 12424">
                  <g id="Groupe_12423" data-name="Groupe 12423">
                    <g id="Groupe_12421" data-name="Groupe 12421">
                      <g id="Groupe_12420" data-name="Groupe 12420" transform="translate(7.058 4.685)">
                        <g id="Groupe_12419" data-name="Groupe 12419">
                          <g id="Groupe_12414" data-name="Groupe 12414" transform="translate(0)">
                            <path id="Tracé_14150" data-name="Tracé 14150" d="M48.777,344.882l19.357,7.2a14.729,14.729,0,0,0,5.138.925H93.221a14.729,14.729,0,0,0,7.884-2.288L126.082,334.9a4.384,4.384,0,0,0,.714-5.744c-1.357-1.994-3.6-2.34-6.07-1.172L96.408,338.688l.029-3.945a7.062,7.062,0,0,0-6.038-6.293L75.59,326.744c-3.416-.483-5.123-1.628-8.1-3.37a26.542,26.542,0,0,0-13.4-3.632h-5.31Z" transform="translate(-48.777 -319.742)" fill="#ffddce"/>
                          </g>
                          <path id="Tracé_14151" data-name="Tracé 14151" d="M66.958,348.248a15.487,15.487,0,0,0,5.4.973H93.331a15.483,15.483,0,0,0,6.445-1.406l14.664-9.292a4.528,4.528,0,0,0,1.386-6.442s-.446-.765-.905-1.544l-18.513,8.151.029-3.945a7.062,7.062,0,0,0-6.038-6.293L75.59,326.744c-3.416-.483-5.123-1.628-8.1-3.37a26.542,26.542,0,0,0-13.4-3.632h-5.31v21.739Z" transform="translate(-48.777 -319.742)" fill="#ffddce"/>
                          <path id="Tracé_14152" data-name="Tracé 14152" d="M126.8,365.332c-1.357-1.994-3.6-2.34-6.07-1.172l-6.689,2.945.582.922a4.384,4.384,0,0,1-.714,5.744l-14.554,9.222a14.728,14.728,0,0,1-6.131,1.338H73.272a14.727,14.727,0,0,1-5.138-.925l-19.357-7.2v4.86l19.357,7.205a14.729,14.729,0,0,0,5.138.925H93.221A14.729,14.729,0,0,0,101.1,386.9l24.978-15.827a4.384,4.384,0,0,0,.713-5.744Z" transform="translate(-48.777 -355.921)" fill="#ffcbbe"/>
                          <g id="Groupe_12415" data-name="Groupe 12415" transform="translate(45.843 10.936)">
                            <path id="Tracé_14153" data-name="Tracé 14153" d="M313.691,382.938v.1l.063-.028Z" transform="translate(-313.69 -382.938)" fill="#f5dbcc"/>
                          </g>
                          <g id="Groupe_12418" data-name="Groupe 12418" transform="translate(31.173 16.27)">
                            <g id="Groupe_12417" data-name="Groupe 12417">
                              <g id="Groupe_12416" data-name="Groupe 12416">
                                <path id="Tracé_14154" data-name="Tracé 14154" d="M245.372,416.433H230.251a1.337,1.337,0,1,1,0-2.674h15.141Z" transform="translate(-228.914 -413.759)" fill="#ffcbbe"/>
                              </g>
                            </g>
                          </g>
                        </g>
                      </g>
                      <path id="Tracé_14155" data-name="Tracé 14155" d="M19.213,326.349a2.543,2.543,0,0,1-2.543,2.543H10.533a2.543,2.543,0,0,1-2.543-2.543V295.211a2.543,2.543,0,0,1,2.543-2.543H16.67a2.543,2.543,0,0,1,2.543,2.543Z" transform="translate(-7.99 -292.668)" fill="#407093"/>
                    </g>
                  </g>
                </g>
              </g>
            </g>
          </g>
        </g>
      </g>
    </g>
    <path id="Tracé_14156" data-name="Tracé 14156" d="M249.977,167.336c-.612-.217-1.176-.423-1.7-.623v-8.524a5.494,5.494,0,0,1,2.6,1.142,1.337,1.337,0,0,0,1.806-1.972,8.279,8.279,0,0,0-4.406-1.87v-1.9a1.337,1.337,0,1,0-2.674,0V155.6a9.894,9.894,0,0,0-.992.242,6.465,6.465,0,0,0-4.424,5.075,5.654,5.654,0,0,0,1.837,5.573,16.2,16.2,0,0,0,3.579,2.022v10.574a7.1,7.1,0,0,1-4.158-1.443,1.337,1.337,0,1,0-1.464,2.238,9.792,9.792,0,0,0,5.622,1.877v2.122a1.337,1.337,0,1,0,2.674,0v-2.216a7.833,7.833,0,0,0,6.42-6.481,6.857,6.857,0,0,0-4.724-7.845Zm-6.3-2.953a3.014,3.014,0,0,1-.86-2.974,3.824,3.824,0,0,1,2.568-3.01c.074-.023.148-.042.221-.061v7.222A11.266,11.266,0,0,1,243.679,164.383Zm8.386,10.354a5.208,5.208,0,0,1-3.783,4.191v-9.361c.26.1.526.191.8.289A4.208,4.208,0,0,1,252.064,174.737Z" transform="translate(-191.348 -125.903)" fill="#e8ba6a"/>
  </g>
</svg>
