<svg id="Groupe_11888" data-name="Groupe 11888" xmlns="http://www.w3.org/2000/svg" xmlns:xlink="http://www.w3.org/1999/xlink" width="52.623" height="50.438" viewBox="0 0 52.623 50.438">
  <defs>
    <radialGradient id="radial-gradient" cx="0.287" cy="0.06" r="1.06" gradientUnits="objectBoundingBox">
      <stop offset="0" stop-color="#fcf800"/>
      <stop offset="1" stop-color="#fc9700"/>
    </radialGradient>
    <radialGradient id="radial-gradient-2" cx="0.312" cy="0.28" r="0.929" gradientUnits="objectBoundingBox">
      <stop offset="0" stop-color="#fff261"/>
      <stop offset="0.11" stop-color="#faed5f"/>
      <stop offset="0.234" stop-color="#ece05a"/>
      <stop offset="0.365" stop-color="#d6cb51"/>
      <stop offset="0.5" stop-color="#b6ad45"/>
      <stop offset="0.639" stop-color="#8e8636"/>
      <stop offset="0.781" stop-color="#5c5723"/>
      <stop offset="0.922" stop-color="#22210d"/>
      <stop offset="1"/>
    </radialGradient>
    <radialGradient id="radial-gradient-3" cx="0.276" cy="0.018" r="1.145" xlink:href="#radial-gradient-2"/>
    <radialGradient id="radial-gradient-4" cx="0.575" cy="0.672" r="0.75" gradientUnits="objectBoundingBox">
      <stop offset="0" stop-color="#e89a51"/>
      <stop offset="1" stop-color="#fff"/>
    </radialGradient>
    <radialGradient id="radial-gradient-5" cx="0.439" cy="0.014" r="1.259" gradientUnits="objectBoundingBox">
      <stop offset="0" stop-color="#fffacf"/>
      <stop offset="1"/>
    </radialGradient>
    <radialGradient id="radial-gradient-6" cx="1.79" cy="0.804" r="2.119" gradientUnits="objectBoundingBox">
      <stop offset="0" stop-color="#fff380"/>
      <stop offset="1"/>
    </radialGradient>
    <radialGradient id="radial-gradient-7" cx="1.326" cy="0.833" r="1.403" gradientUnits="objectBoundingBox">
      <stop offset="0"/>
      <stop offset="0.078" stop-color="#222111"/>
      <stop offset="0.219" stop-color="#5c582e"/>
      <stop offset="0.361" stop-color="#8e8747"/>
      <stop offset="0.5" stop-color="#b6ae5b"/>
      <stop offset="0.635" stop-color="#d6cc6b"/>
      <stop offset="0.766" stop-color="#ece176"/>
      <stop offset="0.89" stop-color="#faee7d"/>
      <stop offset="1" stop-color="#fff380"/>
    </radialGradient>
  </defs>
  <path id="Tracé_7984" data-name="Tracé 7984" d="M355.571,13.342a4.032,4.032,0,0,0-2.107.582c-2.031,1.221-5.631,7.866-7.414,11.378a3,3,0,0,1-2.271,1.65c-3.891.61-11.323,1.981-13.111,3.535a4.1,4.1,0,0,0-1.3,4.007c.533,2.308,5.74,7.787,8.53,10.567a3,3,0,0,1,.866,2.669c-.622,3.889-1.614,11.381-.689,13.563a4.108,4.108,0,0,0,3.41,2.477c2.36.206,9.179-3.053,12.686-4.847a3,3,0,0,1,2.806,0c3.507,1.794,10.326,5.053,12.686,4.847a4.108,4.108,0,0,0,3.409-2.477c.926-2.181-.066-9.674-.689-13.563a2.994,2.994,0,0,1,.868-2.669c2.789-2.781,8-8.259,8.53-10.567a4.107,4.107,0,0,0-1.3-4.007c-1.788-1.555-9.221-2.925-13.112-3.535a3,3,0,0,1-2.27-1.65c-1.783-3.512-5.383-10.157-7.414-11.378a4.033,4.033,0,0,0-2.108-.582Z" transform="translate(-329.26 -13.342)" fill-rule="evenodd" fill="url(#radial-gradient)"/>
  <path id="Tracé_7985" data-name="Tracé 7985" d="M352.674,21.1c-.2.331-.366.623-.494.843-.936,1.617-1.821,3.27-2.666,4.935a7.254,7.254,0,0,1-5.408,3.929c-1.846.289-3.691.62-5.518,1.011-.25.053-.579.123-.955.208a2.981,2.981,0,0,0-1.584,4.878c.254.289.479.54.649.73,1.249,1.39,2.547,2.742,3.869,4.06a7.264,7.264,0,0,1,2.066,6.358c-.3,1.844-.551,3.7-.744,5.56-.026.253-.061.589-.1.972a2.98,2.98,0,0,0,4.149,3.015c.354-.153.662-.289.895-.393,1.708-.758,3.4-1.575,5.057-2.425a7.253,7.253,0,0,1,6.685,0c1.662.851,3.351,1.667,5.057,2.425.233.1.541.24.895.393a2.981,2.981,0,0,0,4.15-3.015c-.036-.383-.071-.719-.1-.972-.192-1.859-.449-3.716-.743-5.56a7.267,7.267,0,0,1,2.065-6.358c1.322-1.318,2.622-2.67,3.869-4.06.171-.19.4-.441.65-.73a2.981,2.981,0,0,0-1.585-4.878c-.376-.084-.705-.155-.955-.208-1.826-.392-3.672-.722-5.516-1.011a7.253,7.253,0,0,1-5.408-3.929c-.845-1.665-1.73-3.318-2.666-4.935-.128-.221-.3-.512-.494-.843a2.981,2.981,0,0,0-5.128,0Z" transform="translate(-328.926 -12.993)" fill-rule="evenodd" opacity="0.5" fill="url(#radial-gradient-2)" style="mix-blend-mode: screen;isolation: isolate"/>
  <path id="Tracé_7986" data-name="Tracé 7986" d="M337.9,54.415a56.023,56.023,0,0,1,40.44-25.007,70.488,70.488,0,0,0-10.978-2.457,3,3,0,0,1-2.27-1.65c-1.783-3.512-5.383-10.157-7.414-11.378a4.108,4.108,0,0,0-4.214,0c-2.031,1.221-5.631,7.866-7.414,11.378a3,3,0,0,1-2.271,1.65c-3.891.61-11.323,1.981-13.111,3.535a4.1,4.1,0,0,0-1.3,4.007c.533,2.308,5.74,7.787,8.53,10.567a3,3,0,0,1,.866,2.669c-.282,1.764-.641,4.269-.861,6.685Z" transform="translate(-329.26 -13.342)" fill-rule="evenodd" fill="url(#radial-gradient-3)" style="mix-blend-mode: screen;isolation: isolate"/>
  <path id="Union_10" data-name="Union 10" d="M27.613,45a3,3,0,0,0-2.806,0C21.3,46.8,14.481,50.057,12.121,49.852A4.115,4.115,0,0,1,8.888,47.74c.112.161.231.317.356.464a3.473,3.473,0,0,0,2.152,1.3c2.482.35,9.651-5.18,13.338-8.225a2.135,2.135,0,0,1,2.951,0c3.686,3.044,10.857,8.575,13.338,8.225a3.468,3.468,0,0,0,2.152-1.3,5.719,5.719,0,0,0,.356-.464A4.115,4.115,0,0,1,40.3,49.852q-.107.009-.226.009C37.529,49.861,31.014,46.744,27.613,45ZM40.578,33.069a2.246,2.246,0,0,1,.9-2.76c3.507-2.454,9.844-7.19,10.943-9.752l0,.018c-.535,2.308-5.741,7.787-8.529,10.568a2.993,2.993,0,0,0-.868,2.669c.623,3.889,1.615,11.381.69,13.563l-.007.017C44.317,44.674,41.974,37.118,40.578,33.069ZM8.711,47.375c-.924-2.182.067-9.674.69-13.563a3,3,0,0,0-.866-2.669c-2.79-2.781-8-8.26-8.529-10.568l0-.018c1.1,2.562,7.435,7.3,10.943,9.752a2.246,2.246,0,0,1,.9,2.761c-1.4,4.047-3.74,11.6-3.122,14.322ZM37.042,14.434a2.474,2.474,0,0,1-2.348-1.707C33.271,8.876,30.42,1.82,28.307,0l.009.006c2.031,1.221,5.632,7.866,7.414,11.378A3,3,0,0,0,38,13.033c3.891.61,11.323,1.981,13.111,3.535l.009.008C48.737,15.128,41.146,14.6,37.042,14.434ZM1.307,16.568c1.788-1.554,9.219-2.925,13.111-3.535a3,3,0,0,0,2.271-1.649C18.471,7.871,22.072,1.226,24.1.006L24.112,0C22,1.82,19.148,8.876,17.724,12.727a2.473,2.473,0,0,1-2.348,1.707c-4.1.163-11.693.694-14.077,2.142Z" transform="translate(0.102 0.576)" fill="url(#radial-gradient-4)" style="mix-blend-mode: multiply;isolation: isolate"/>
  <path id="Tracé_7992" data-name="Tracé 7992" d="M334.353,29.735a80.367,80.367,0,0,1,10.178-.751c1.541-.051,2.284-.187,2.968-1.747,1.717-3.925,2.5-7.1,4.732-11.041a6.489,6.489,0,0,1,.976-1.428c.862-.862,1.92-.451,1.728.826-.7,4.655-1.525,9.295-2.516,13.9-.767,3.556-2.835,3.646-6.01,3.531-3.828-.139-9.049-.462-12.844-1.014-3.342-.487-1.719-1.888.788-2.272Z" transform="translate(-329.126 -13.288)" fill-rule="evenodd" fill="url(#radial-gradient-5)" style="mix-blend-mode: screen;isolation: isolate"/>
  <path id="Tracé_7993" data-name="Tracé 7993" d="M350.73,20.1c.85.3,1.047,1.926.442,3.626s-1.787,2.833-2.636,2.53-1.048-1.927-.442-3.626,1.786-2.833,2.636-2.53Z" transform="translate(-328.237 -12.97)" fill="#fff" fill-rule="evenodd"/>
  <path id="Tracé_7994" data-name="Tracé 7994" d="M352.117,16.138c.477.225.5,1.179.054,2.134s-1.2,1.546-1.675,1.322-.5-1.179-.053-2.133,1.2-1.547,1.674-1.323Z" transform="translate(-328.105 -13.19)" fill="#fff" fill-rule="evenodd"/>
  <path id="Tracé_7995" data-name="Tracé 7995" d="M367.562,52.662c1.14-.226,2.311.841,2.617,2.382s-.372,2.974-1.511,3.2-2.311-.841-2.617-2.382.371-2.974,1.511-3.2Z" transform="translate(-327.227 -11.166)" fill-rule="evenodd" fill="url(#radial-gradient-6)" style="mix-blend-mode: screen;isolation: isolate"/>
  <path id="Tracé_7996" data-name="Tracé 7996" d="M372.931,39.238c-1.54,1.3-3.232,2.279-4.732,3.474a2.209,2.209,0,0,0-.938,2.46c.228.951.657,1.843.939,2.779.959,3.2.117,3.271-1.6.764-.749-1.094-1.43-2.24-2.084-3.393-1.305-2.3-.833-3.525,1.386-4.742a40.87,40.87,0,0,1,6.276-2.619c1.889-.653,2.483-.186.75,1.277Z" transform="translate(-327.348 -11.995)" fill-rule="evenodd" fill="url(#radial-gradient-7)" style="mix-blend-mode: screen;isolation: isolate"/>
</svg>
