<svg xmlns="http://www.w3.org/2000/svg" width="30.234" height="24.565" viewBox="0 0 30.234 24.565">
  <path id="twitter" d="M30.234,50.908a12.923,12.923,0,0,1-3.571.979,6.163,6.163,0,0,0,2.727-3.426,12.387,12.387,0,0,1-3.93,1.5A6.2,6.2,0,0,0,14.737,54.2a6.382,6.382,0,0,0,.144,1.413A17.544,17.544,0,0,1,2.105,49.13a6.2,6.2,0,0,0,1.9,8.284,6.121,6.121,0,0,1-2.8-.763v.068a6.227,6.227,0,0,0,4.966,6.09,6.186,6.186,0,0,1-1.625.2,5.481,5.481,0,0,1-1.173-.106,6.257,6.257,0,0,0,5.792,4.318,12.454,12.454,0,0,1-7.685,2.644A11.61,11.61,0,0,1,0,69.784a17.45,17.45,0,0,0,9.509,2.782c11.406,0,17.642-9.448,17.642-17.638,0-.274-.009-.539-.023-.8A12.365,12.365,0,0,0,30.234,50.908Z" transform="translate(0 -48)" fill="#2e3c66"/>
</svg>
