<svg xmlns="http://www.w3.org/2000/svg" width="17.1" height="17.1" viewBox="0 0 17.1 17.1">
  <g id="Groupe_11985" data-name="Groupe 11985" transform="translate(0 -1)">
    <g id="_01" data-name="01" transform="translate(0 1)">
      <path id="Tracé_7727" data-name="Tracé 7727" d="M9.8,1.25A8.55,8.55,0,1,0,18.35,9.8,8.55,8.55,0,0,0,9.8,1.25Zm0,15.907A7.357,7.357,0,1,1,17.157,9.8,7.357,7.357,0,0,1,9.8,17.157Z" transform="translate(-1.25 -1.25)" fill="#fff"/>
      <path id="Icon_weather-time-8" data-name="Icon weather-time-8" d="M12.2,17.454a.808.808,0,0,1,.36-.483l3.4-1.98V9.163a.787.787,0,1,1,1.573,0v6.321a.774.774,0,0,1-.161.474.728.728,0,0,1-.4.275l-3.639,2.113a.67.67,0,0,1-.389.114.738.738,0,0,1-.682-.4A.846.846,0,0,1,12.2,17.454Z" transform="translate(-7.502 -5.396)" fill="#fff"/>
    </g>
  </g>
</svg>
