<svg xmlns="http://www.w3.org/2000/svg" id="calendar" width="17.103" height="16.801" viewBox="0 0 17.103 16.801">
  <g id="_x31_5_38_" transform="translate(0 0)">
    <g id="Groupe_11333" data-name="Groupe 11333">
      <path id="Tracé_7706" data-name="Tracé 7706" d="M100.088,8.662h.245a.673.673,0,0,0,.673-.673V5.435a.673.673,0,0,0-.673-.673h-.245a.673.673,0,0,0-.673.673V7.988A.673.673,0,0,0,100.088,8.662Z" transform="translate(-95.909 -4.745)" fill="#1b8793"/>
      <path id="Tracé_7707" data-name="Tracé 7707" d="M344.954,8.189h.245a.673.673,0,0,0,.673-.673V4.962a.673.673,0,0,0-.673-.673h-.245a.673.673,0,0,0-.673.673V7.515A.673.673,0,0,0,344.954,8.189Z" transform="translate(-332.139 -4.289)" fill="#1b8793"/>
      <path id="Tracé_7708" data-name="Tracé 7708" d="M16.009,43.558H14.281v2.018A1.084,1.084,0,0,1,13.06,46.62h-.245A1.222,1.222,0,0,1,11.595,45.4V43.558H5.645v1.858a1.222,1.222,0,0,1-1.221,1.221H4.179a1.222,1.222,0,0,1-1.221-1.221V43.558H1.095A1.1,1.1,0,0,0,0,44.653V57.879a1.1,1.1,0,0,0,1.095,1.095H16.009A1.1,1.1,0,0,0,17.1,57.879V44.653A1.1,1.1,0,0,0,16.009,43.558Zm0,14.321H1.095V47.891H16.009v9.988Z" transform="translate(0 -42.173)" fill="#1b8793"/>
      <path id="Tracé_7709" data-name="Tracé 7709" d="M254.639,207.139H256.6a.141.141,0,0,0,.141-.141v-1.7a.141.141,0,0,0-.141-.141h-1.965a.141.141,0,0,0-.141.141V207A.141.141,0,0,0,254.639,207.139Z" transform="translate(-245.522 -198.071)" fill="#1b8793"/>
      <path id="Tracé_7710" data-name="Tracé 7710" d="M345.584,207.139h1.965a.141.141,0,0,0,.141-.141v-1.7a.141.141,0,0,0-.141-.141h-1.965a.141.141,0,0,0-.141.141V207A.141.141,0,0,0,345.584,207.139Z" transform="translate(-333.26 -198.071)" fill="#1b8793"/>
      <path id="Tracé_7711" data-name="Tracé 7711" d="M72.752,286.138h1.965a.141.141,0,0,0,.141-.141v-1.7a.141.141,0,0,0-.141-.141H72.752a.141.141,0,0,0-.141.141V286A.141.141,0,0,0,72.752,286.138Z" transform="translate(-70.05 -274.284)" fill="#1b8793"/>
      <path id="Tracé_7712" data-name="Tracé 7712" d="M163.7,286.138h1.965A.141.141,0,0,0,165.8,286v-1.7a.141.141,0,0,0-.141-.141H163.7a.141.141,0,0,0-.141.141V286A.141.141,0,0,0,163.7,286.138Z" transform="translate(-157.787 -274.284)" fill="#1b8793"/>
      <path id="Tracé_7713" data-name="Tracé 7713" d="M254.64,286.138h1.965a.141.141,0,0,0,.141-.141v-1.7a.141.141,0,0,0-.141-.141H254.64a.141.141,0,0,0-.141.141V286A.141.141,0,0,0,254.64,286.138Z" transform="translate(-245.523 -274.284)" fill="#1b8793"/>
      <path id="Tracé_7714" data-name="Tracé 7714" d="M345.584,286.138h1.965a.141.141,0,0,0,.141-.141v-1.7a.141.141,0,0,0-.141-.141h-1.965a.141.141,0,0,0-.141.141V286A.141.141,0,0,0,345.584,286.138Z" transform="translate(-333.26 -274.284)" fill="#1b8793"/>
      <path id="Tracé_7715" data-name="Tracé 7715" d="M74.718,363.154H72.753a.141.141,0,0,0-.141.141V365a.141.141,0,0,0,.141.141h1.965a.141.141,0,0,0,.141-.141v-1.7A.141.141,0,0,0,74.718,363.154Z" transform="translate(-70.051 -350.498)" fill="#1b8793"/>
      <path id="Tracé_7716" data-name="Tracé 7716" d="M165.662,363.154H163.7a.141.141,0,0,0-.141.141V365a.141.141,0,0,0,.141.141h1.965A.141.141,0,0,0,165.8,365v-1.7A.141.141,0,0,0,165.662,363.154Z" transform="translate(-157.788 -350.498)" fill="#1b8793"/>
      <path id="Tracé_7717" data-name="Tracé 7717" d="M256.606,363.154h-1.965a.141.141,0,0,0-.141.141V365a.141.141,0,0,0,.141.141h1.965a.141.141,0,0,0,.141-.141v-1.7A.141.141,0,0,0,256.606,363.154Z" transform="translate(-245.524 -350.498)" fill="#1b8793"/>
      <path id="Tracé_7718" data-name="Tracé 7718" d="M347.549,363.154h-1.965a.141.141,0,0,0-.141.141V365a.141.141,0,0,0,.141.141h1.965a.141.141,0,0,0,.141-.141v-1.7A.141.141,0,0,0,347.549,363.154Z" transform="translate(-333.26 -350.498)" fill="#1b8793"/>
    </g>
  </g>
</svg>